<svg width="600" height="198" viewBox="0 0 600 198" fill="none" xmlns="http://www.w3.org/2000/svg">
<path d="M130.248 2.45862L2.02357 37.0079V94.9658L130.252 39.7505L130.248 2.45862ZM565.147 5.45344C559.351 5.47631 553.559 6.02958 547.871 7.11406C537.206 9.17729 526.792 13.87 519.192 21.7816C510.342 30.7735 505.751 43.0782 503.732 55.3412C502.007 65.8712 501.872 76.6111 502.611 87.2386C503.575 99.693 506.159 112.369 512.642 123.206C516.299 129.317 521.304 134.644 527.302 138.512C537.457 145.114 549.761 147.444 561.709 147.714C574.298 147.965 587.049 145.587 598.483 140.237V113.517C590.842 116.694 582.694 118.618 574.475 119.481C567.737 120.051 560.839 119.894 554.266 118.191C548.962 116.825 544.018 113.689 541.051 109.015C536.845 102.48 535.693 94.5686 535.041 86.9759C534.44 77.7064 534.407 68.3509 535.701 59.1339C536.721 52.4566 538.679 45.4749 543.567 40.5457C548.125 35.8978 554.724 34.0785 561.034 33.4746C569.41 32.7393 577.87 33.3586 586.149 34.7654C590.058 35.4556 593.944 36.367 597.676 37.7437C597.662 28.8719 597.676 19.9962 597.669 11.1205C587.288 7.29982 576.212 5.4098 565.147 5.45344H565.147ZM458.33 7.59818C446.06 7.62819 433.785 7.60167 421.515 7.60917C405.647 53.5403 389.775 99.4676 373.918 145.403C384.804 145.421 395.687 145.399 406.573 145.414C409.199 136.433 411.814 127.445 414.432 118.461C431.005 118.461 447.583 118.464 464.156 118.457C466.793 127.434 469.393 136.422 472.018 145.403C483.52 145.418 495.022 145.403 506.519 145.41C490.445 99.4753 474.446 53.5143 458.33 7.59818ZM297.173 7.60862C287.511 7.61096 277.849 7.61667 268.187 7.60918C268.172 53.5441 268.18 99.4753 268.183 145.41H314.891C322.39 145.373 329.93 145.65 337.384 144.611C345.115 143.576 352.881 141.37 359.359 136.895C364.262 133.538 368.182 128.777 370.512 123.307C373.476 116.457 374.181 108.835 373.73 101.448C373.265 94.5872 371.153 87.61 366.576 82.3469C362.461 77.4852 356.591 74.458 350.532 72.7662C351.091 72.2035 351.864 71.9633 352.562 71.6144C356.759 69.5849 360.514 66.5765 363.23 62.7689C366.61 58.1061 368.329 52.4038 368.775 46.7018C369.304 39.7844 368.448 32.5891 365.215 26.3694C362.307 20.6749 357.408 16.1287 351.736 13.2477C343.87 9.19253 334.916 7.85295 326.16 7.62787C316.498 7.60724 306.836 7.60629 297.173 7.60863V7.60862ZM439.911 30.9611C441.314 36.0479 442.492 41.195 443.854 46.2968C448.179 61.7223 452.501 77.1474 456.822 92.5765C445.205 92.5803 433.586 92.5803 421.969 92.5765C424.741 83.0032 427.55 73.4414 430.338 63.8718C432.768 55.4051 435.387 46.9867 437.566 38.4487C438.26 36.0554 438.745 33.5946 439.566 31.2425L439.911 30.9611ZM311.081 33.6812C315.484 33.6806 319.886 33.6826 324.288 33.6883C328.245 33.8271 332.582 34.4048 335.625 37.192C338.468 39.7692 339.256 43.7908 339.38 47.4596C339.447 51.1772 339.143 55.1459 337.088 58.3608C335.444 60.9604 332.541 62.4875 329.592 63.0915C326.494 63.8118 323.298 63.6016 320.147 63.6278C312.723 63.6278 305.303 63.6316 297.879 63.6278C297.875 53.6493 297.879 43.6669 297.875 33.6883C302.277 33.6846 306.679 33.6817 311.081 33.6812H311.081ZM140.016 37.447L140.013 145.47L194.324 145.466L214.041 96.7066L140.016 37.447ZM130.255 50.389L2.02357 105.609V169.763L130.221 91.466L130.255 50.389ZM311.256 86.5748C315.717 86.5739 320.176 86.5765 324.637 86.5896C329.322 86.6909 334.431 87.0773 338.25 90.0971C341.638 92.7906 342.711 97.3297 342.838 101.46C342.939 105.785 342.692 110.41 340.359 114.195C338.663 116.964 335.647 118.637 332.545 119.331C328.362 120.329 324.029 120.04 319.768 120.089C312.471 120.085 305.171 120.092 297.875 120.081C297.879 108.913 297.879 97.7496 297.875 86.5819C302.335 86.58 306.796 86.5757 311.256 86.5748V86.5748ZM130.255 102.866L2.02357 181.212V194.803L81.2931 194.71L130.255 147.597V102.866ZM179.525 155.291L136.46 155.31L95.3528 194.815L179.521 194.8L179.525 155.291ZM284.422 156.964C282.203 156.932 279.982 157.192 277.836 157.771C274.384 158.701 271.248 160.948 269.53 164.118C266.961 168.759 266.765 174.276 267.126 179.446C267.505 184.322 269.073 189.612 273.229 192.591C275.604 194.44 278.635 194.871 281.456 195.614H285.713C288.17 194.909 290.744 194.575 293.066 193.438C293.062 191.011 293.058 188.588 293.07 186.165C289.086 187.661 284.577 188.543 280.428 187.208C277.937 186.416 276.612 183.869 276.222 181.442C275.652 177.927 275.63 174.306 276.207 170.792C276.583 168.244 278.143 165.656 280.784 164.996C284.738 163.983 288.943 164.594 292.815 165.705C292.815 163.293 292.811 160.885 292.815 158.473C290.126 157.527 287.275 157.004 284.422 156.964H284.422ZM589.785 156.968C588.049 156.948 586.312 157.105 584.607 157.448C581.872 158.004 579.212 159.192 577.224 161.181C574.793 163.506 573.507 166.763 572.914 170.015C572.22 174.036 572.265 178.174 572.914 182.195C573.555 185.973 575.131 189.8 578.207 192.234C580.646 194.328 583.872 194.856 586.884 195.614H591.059C593.546 194.95 596.131 194.571 598.483 193.461V186.161C594.837 187.582 590.789 188.336 586.914 187.519C585.132 187.147 583.452 186.067 582.649 184.398C581.299 181.738 581.283 178.655 581.227 175.74C581.317 172.885 581.377 169.797 582.968 167.31C584.131 165.528 586.295 164.748 588.34 164.583C591.686 164.302 595.092 164.729 598.3 165.727C598.292 163.311 598.292 160.896 598.3 158.484C595.568 157.522 592.678 157.001 589.785 156.968V156.968ZM421.042 157.021C420.789 157.022 420.536 157.026 420.284 157.032C416.334 157.088 412.084 157.992 409.199 160.884C406.176 163.882 405.159 168.259 404.81 172.367C404.488 177.09 404.57 181.971 406.138 186.487C407.181 189.496 409.274 192.212 412.163 193.645C414.177 194.755 416.499 194.984 418.679 195.614H423.439C426.073 194.95 428.886 194.616 431.178 193.033C434.401 190.981 436.1 187.279 436.775 183.632C437.593 179.168 437.604 174.562 436.997 170.072C436.434 166.313 435.031 162.392 431.921 159.999C428.844 157.618 424.846 157.008 421.042 157.021V157.021ZM376.342 157.596C373.82 157.599 371.3 157.608 368.779 157.602C368.775 169.978 368.779 182.357 368.775 194.733C373.952 194.733 379.128 194.759 384.309 194.722C388.788 194.605 393.631 193.056 396.242 189.177C398.999 185.167 399.408 180.099 399.405 175.372C399.284 170.698 398.692 165.562 395.417 161.95C392.543 158.739 388.046 157.745 383.908 157.625C381.385 157.597 378.863 157.593 376.342 157.596L376.342 157.596ZM313.405 157.598C309.166 157.606 304.928 157.595 300.689 157.602C300.692 169.982 300.689 182.361 300.693 194.74C303.506 194.737 306.316 194.74 309.129 194.736C309.133 190.134 309.129 185.527 309.133 180.924C310.847 180.916 312.565 180.928 314.28 180.913C316.478 185.505 318.605 190.126 320.766 194.733C324.044 194.748 327.327 194.729 330.606 194.744C327.736 189.594 324.858 184.45 321.977 179.303C323.654 178.688 325.222 177.683 326.243 176.186C328.152 173.448 328.388 169.914 327.994 166.692C327.661 164.006 326.314 161.357 323.996 159.872C320.886 157.823 317.018 157.583 313.406 157.598L313.405 157.598ZM336.397 157.598C336.382 169.978 336.393 182.357 336.393 194.74C344.815 194.737 353.241 194.744 361.663 194.733C361.73 192.298 361.827 189.86 361.838 187.425C356.17 187.421 350.502 187.425 344.834 187.421C344.83 184.63 344.83 181.839 344.834 179.048C349.395 179.045 353.957 179.045 358.523 179.048C358.526 176.816 358.523 174.588 358.523 172.356C353.961 172.352 349.395 172.36 344.834 172.356C344.83 169.918 344.83 167.479 344.834 165.045C350.258 165.022 355.683 165.075 361.111 165.018C360.995 162.55 360.968 160.082 360.953 157.617C352.768 157.58 344.583 157.613 336.397 157.598L336.397 157.598ZM500.071 157.598C495.783 169.97 491.522 182.353 487.242 194.733C490.205 194.74 493.169 194.744 496.132 194.729C496.804 192.332 497.509 189.942 498.192 187.549C502.656 187.549 507.116 187.552 511.584 187.545C512.315 189.927 512.878 192.373 513.715 194.718C516.817 194.774 519.927 194.721 523.033 194.736C518.704 182.357 514.386 169.978 510.053 157.598C506.726 157.602 503.398 157.602 500.071 157.598V157.598ZM550.02 157.598C540.69 157.606 531.361 157.598 522.028 157.602C521.975 160.123 521.915 162.644 521.825 165.165C525.137 165.168 528.454 165.165 531.77 165.168C531.774 175.027 531.766 184.882 531.773 194.74C534.606 194.737 537.438 194.737 540.274 194.74C540.278 184.882 540.27 175.023 540.278 165.168C543.59 165.165 546.906 165.168 550.223 165.165C550.178 162.644 550.117 160.119 550.02 157.598H550.02ZM556.6 157.598C556.585 169.978 556.596 182.357 556.596 194.736C559.45 194.729 562.305 194.759 565.167 194.722C565.149 182.35 565.164 169.978 565.156 157.602C562.302 157.598 559.45 157.602 556.599 157.598H556.6ZM448.127 157.599C446.582 157.599 445.037 157.602 443.493 157.602C443.49 169.982 443.49 182.357 443.493 194.736C445.969 194.74 448.449 194.74 450.929 194.736C450.888 187.099 451.022 179.461 450.857 171.827C453.798 179.483 456.856 187.099 459.864 194.733C461.74 194.74 463.612 194.74 465.491 194.733C468.519 187.057 471.595 179.397 474.585 171.707C474.3 179.378 474.498 187.061 474.442 194.736C477 194.74 479.562 194.737 482.128 194.74C482.132 182.361 482.128 169.982 482.132 157.602C479.045 157.599 475.962 157.602 472.878 157.602C469.543 166.095 466.028 174.52 462.795 183.058C459.572 174.528 456.098 166.095 452.767 157.609C451.22 157.6 449.673 157.598 448.128 157.599L448.127 157.599ZM505.004 163.882C506.448 169.438 508.039 174.952 509.581 180.482C506.471 180.482 503.361 180.485 500.251 180.482C501.838 174.948 503.53 169.445 505.004 163.882V163.882ZM421.153 164.535C423.08 164.505 425.021 164.854 426.437 166.208C428.294 168.267 428.417 171.227 428.593 173.857C428.593 177.488 428.875 181.307 427.415 184.724C426.661 186.544 424.793 187.658 422.88 187.815C420.476 188.044 417.644 188.067 415.79 186.281C413.911 184.263 413.723 181.325 413.532 178.714C413.446 175.229 413.311 171.617 414.44 168.267C415.036 166.436 416.675 165.033 418.585 164.752C419.404 164.641 420.277 164.549 421.153 164.535V164.535ZM312.325 164.596C313.39 164.591 314.456 164.596 315.521 164.647C316.928 164.707 318.466 165.348 318.98 166.763C319.558 168.451 319.516 170.342 319.077 172.06C318.698 173.59 317.168 174.457 315.679 174.543C313.499 174.693 311.312 174.566 309.133 174.607C309.129 171.272 309.133 167.941 309.129 164.61C310.194 164.617 311.259 164.601 312.325 164.596L312.325 164.596ZM381.603 165.142C383.066 165.13 384.523 165.182 385.956 165.491C388.173 165.964 389.663 168.001 390.056 170.146C390.788 173.703 390.709 177.394 390.27 180.984C389.959 183.268 389.01 185.909 386.616 186.72C383.585 187.699 380.344 187.155 377.219 187.298C377.216 179.923 377.216 172.544 377.219 165.168C378.673 165.227 380.141 165.153 381.603 165.142V165.142Z" fill="#C8102F"/>
</svg>
